<?xml version="1.0" standalone="no"?><!DOCTYPE svg PUBLIC "-//W3C//DTD SVG 1.1//EN" "http://www.w3.org/Graphics/SVG/1.1/DTD/svg11.dtd"><svg t="1769173727861" class="icon" viewBox="0 0 1024 1024" version="1.1" xmlns="http://www.w3.org/2000/svg" p-id="10877" xmlns:xlink="http://www.w3.org/1999/xlink" width="200" height="200"><path d="M860.16 657.408c0 10.5472-6.144 17.5616-10.24 17.5616h-35.072a122.5216 122.5216 0 0 0-118.528-92.16 122.5728 122.5728 0 0 0-118.528 92.16H503.5008V256.8704H849.92c4.096 0 10.24 7.0144 10.24 17.6128v382.8736z m-163.84 109.7216a61.4912 61.4912 0 1 1 61.44-61.44c0 33.8432-27.5456 61.44-61.44 61.44z m-368.64 0a61.4912 61.4912 0 1 1 61.44-61.44c0 33.8432-27.5456 61.44-61.44 61.44z m-163.84-166.3488l29.6448-57.0368h248.576v117.8112A122.6752 122.6752 0 0 0 327.68 582.8096a122.5728 122.5728 0 0 0-118.528 92.16H163.84v-74.1888z m138.3424-266.0864h139.8784V420.864H257.3824l44.8-86.1696zM849.92 195.4304H472.7808a30.72 30.72 0 0 0-30.72 30.72v47.104H283.4944a30.7712 30.7712 0 0 0-27.2384 16.5376l-150.3744 289.28a31.232 31.232 0 0 0-3.4816 14.1824v112.384a30.72 30.72 0 0 0 30.72 30.72h76.032A122.5728 122.5728 0 0 0 327.68 828.5696a122.5728 122.5728 0 0 0 118.528-92.16h131.584a122.5728 122.5728 0 0 0 118.528 92.16 122.5728 122.5728 0 0 0 118.528-92.16h35.072c39.5264 0 71.68-35.4816 71.68-79.0528V274.4832c0-43.52-32.1536-79.0528-71.68-79.0528z" fill="#1296db" p-id="10878"></path></svg>