<?xml version="1.0" standalone="no"?><!DOCTYPE svg PUBLIC "-//W3C//DTD SVG 1.1//EN" "http://www.w3.org/Graphics/SVG/1.1/DTD/svg11.dtd"><svg t="1769173769480" class="icon" viewBox="0 0 1027 1024" version="1.1" xmlns="http://www.w3.org/2000/svg" p-id="11949" xmlns:xlink="http://www.w3.org/1999/xlink" width="200.5859375" height="200"><path d="M634.88 846.506667h-546.133333c-47.786667 0-85.333333 37.546667-85.333334 85.333333s37.546667 85.333333 85.333334 85.333333h546.133333c47.786667 0 85.333333-37.546667 85.333333-85.333333s-37.546667-85.333333-85.333333-85.333333z m-546.133333 102.4c-10.24 0-17.066667-6.826667-17.066667-17.066667s6.826667-17.066667 17.066667-17.066667 17.066667 6.826667 17.066666 17.066667-6.826667 17.066667-17.066666 17.066667z m136.533333 0c-10.24 0-17.066667-6.826667-17.066667-17.066667s6.826667-17.066667 17.066667-17.066667 17.066667 6.826667 17.066667 17.066667-6.826667 17.066667-17.066667 17.066667z m136.533333 0c-10.24 0-17.066667-6.826667-17.066666-17.066667s6.826667-17.066667 17.066666-17.066667 17.066667 6.826667 17.066667 17.066667-6.826667 17.066667-17.066667 17.066667z m136.533334 0c-10.24 0-17.066667-6.826667-17.066667-17.066667s6.826667-17.066667 17.066667-17.066667 17.066667 6.826667 17.066666 17.066667-6.826667 17.066667-17.066666 17.066667z m136.533333 0c-10.24 0-17.066667-6.826667-17.066667-17.066667s6.826667-17.066667 17.066667-17.066667 17.066667 6.826667 17.066667 17.066667-6.826667 17.066667-17.066667 17.066667zM1027.413333 727.04v-20.48-3.413333-3.413334L822.613333 34.133333c-3.413333-13.653333-17.066667-23.893333-34.133333-23.893333s-27.306667 10.24-34.133333 23.893333l-204.8 617.813334v10.24l34.133333 136.533333c3.413333 6.826667 6.826667 13.653333 17.066667 13.653333 6.826667 0 13.653333-3.413333 17.066666-10.24l211.626667-621.226666 160.426667 518.826666-221.866667 47.786667c-6.826667 0-13.653333 10.24-13.653333 17.066667 0 61.44 85.333333 119.466667 170.666666 119.466666 30.72 0 58.026667-10.24 75.093334-27.306666 30.72-37.546667 27.306667-92.16 27.306666-129.706667zM20.48 812.373333h512c10.24 0 17.066667-6.826667 17.066667-17.066666 0-3.413333 0-6.826667-3.413334-10.24l-102.4-406.186667c-3.413333-6.826667-10.24-13.653333-17.066666-13.653333h-307.2c-6.826667 0-13.653333 6.826667-17.066667 13.653333l-102.4 409.6c0 3.413333 0 10.24 3.413333 13.653333 6.826667 6.826667 10.24 10.24 17.066667 10.24z m116.053333-409.6h279.893334l95.573333 375.466667H413.013333l-30.72-204.8h13.653334c10.24 0 17.066667-6.826667 17.066666-17.066667s-6.826667-17.066667-17.066666-17.066666h-68.266667c-10.24 0-17.066667 6.826667-17.066667 17.066666s6.826667 17.066667 17.066667 17.066667h17.066667l30.72 204.8H337.92L273.066667 648.533333c-3.413333-6.826667-10.24-10.24-13.653334-10.24H75.093333l61.44-235.52z" fill="#1296db" p-id="11950"></path></svg>